Abduction_states
version=1
nRows=17
nColumns=41
inDegrees=yes

# SIMM Motion File Header:
name Abduction_states
datacolumns 41
datarows 17
otherdata 1
range 2.04274418 4.82334227
endheader
time	/jointset/ground_thorax/thorax_tilt/value	/jointset/ground_thorax/thorax_tilt/speed	/jointset/ground_thorax/thorax_list/value	/jointset/ground_thorax/thorax_list/speed	/jointset/ground_thorax/thorax_rotation/value	/jointset/ground_thorax/thorax_rotation/speed	/jointset/ground_thorax/thorax_tx/value	/jointset/ground_thorax/thorax_tx/speed	/jointset/ground_thorax/thorax_ty/value	/jointset/ground_thorax/thorax_ty/speed	/jointset/ground_thorax/thorax_tz/value	/jointset/ground_thorax/thorax_tz/speed	/jointset/sternoclavicular/sternoclavicular_r2/value	/jointset/sternoclavicular/sternoclavicular_r2/speed	/jointset/sternoclavicular/sternoclavicular_r3/value	/jointset/sternoclavicular/sternoclavicular_r3/speed	/jointset/unrotscap/unrotscap_r3/value	/jointset/unrotscap/unrotscap_r3/speed	/jointset/unrotscap/unrotscap_r2/value	/jointset/unrotscap/unrotscap_r2/speed	/jointset/acromioclavicular/acromioclavicular_r2/value	/jointset/acromioclavicular/acromioclavicular_r2/speed	/jointset/acromioclavicular/acromioclavicular_r3/value	/jointset/acromioclavicular/acromioclavicular_r3/speed	/jointset/acromioclavicular/acromioclavicular_r1/value	/jointset/acromioclavicular/acromioclavicular_r1/speed	/jointset/unrothum/unrothum_r1/value	/jointset/unrothum/unrothum_r1/speed	/jointset/unrothum/unrothum_r3/value	/jointset/unrothum/unrothum_r3/speed	/jointset/unrothum/unrothum_r2/value	/jointset/unrothum/unrothum_r2/speed	/jointset/shoulder0/elv_angle/value	/jointset/shoulder0/elv_angle/speed	/jointset/shoulder1/shoulder_elv/value	/jointset/shoulder1/shoulder_elv/speed	/jointset/shoulder1/shoulder1_r2/value	/jointset/shoulder1/shoulder1_r2/speed	/jointset/shoulder2/shoulder_rot/value	/jointset/shoulder2/shoulder_rot/speed
      2.04274418	     -0.00000000	     -0.00000000	      0.00000000	      0.00000000	      0.00000000	      0.00000000	     -0.00000000	     -0.00000000	      0.00000000	      0.00000000	     -0.00000000	     -0.00000000	    -21.54597628	      6.67585305	      9.12585145	     -2.82757404	     -9.12585145	      2.82757404	     21.54597628	     -6.67585305	     -4.36258833	      1.35171404	     35.25643376	    -10.92393159	     15.84788090	     -4.91034255	    -15.84788090	      4.91034255	    -35.25643376	     10.92393159	      4.36258833	     -1.35171404	     30.00000000	      0.00000000	     89.03380300	    -27.58643089	    -30.00000000	     -0.00000000	      0.00000000	      0.00000000
      2.08462278	     -0.00000000	     -0.00000000	      0.00000000	      0.00000000	      0.00000000	      0.00000000	     -0.00000000	     -0.00000000	      0.00000000	      0.00000000	     -0.00000000	     -0.00000000	    -21.16669340	     11.28106531	      8.96520525	     -4.77812306	     -8.96520525	      4.77812306	     21.16669340	    -11.28106531	     -4.28579186	      2.28416867	     34.63579994	    -18.45960131	     15.56890400	     -8.29765044	    -15.56890400	      8.29765044	    -34.63579994	     18.45960131	      4.28579186	     -2.28416867	     30.00000000	      0.00000000	     87.46650356	    -46.61641383	    -30.00000000	     -0.00000000	      0.00000000	      0.00000000
      2.12650138	     -0.00000000	     -0.00000000	      0.00000000	      0.00000000	      0.00000000	      0.00000000	     -0.00000000	     -0.00000000	      0.00000000	      0.00000000	     -0.00000000	     -0.00000000	    -20.61634796	     14.80603300	      8.73210508	     -6.27113183	     -8.73210508	      6.27113183	     20.61634796	    -14.80603300	     -4.17435895	      2.99789742	     33.73525045	    -24.22762908	     15.16410409	    -10.89039756	    -15.16410409	     10.89039756	    -33.73525045	     24.22762908	      4.17435895	     -2.99789742	     30.00000000	      0.00000000	     85.19232728	    -61.18253395	    -30.00000000	     -0.00000000	      0.00000000	      0.00000000
      2.16837999	     -0.00000000	     -0.00000000	      0.00000000	      0.00000000	      0.00000000	      0.00000000	     -0.00000000	     -0.00000000	      0.00000000	      0.00000000	     -0.00000000	     -0.00000000	    -19.94317961	     17.15238224	      8.44698296	     -7.26493385	     -8.44698296	      7.26493385	     19.94317961	    -17.15238224	     -4.03805711	      3.47298176	     32.63372158	    -28.06704234	     14.66896330	    -12.61622623	    -14.66896330	     12.61622623	    -32.63372158	     28.06704234	      4.03805711	     -3.47298176	     30.00000000	      0.00000000	     82.41061357	    -70.87828382	    -30.00000000	     -0.00000000	      0.00000000	      0.00000000
      2.21025859	     -0.00000000	     -0.00000000	      0.00000000	      0.00000000	      0.00000000	      0.00000000	     -0.00000000	     -0.00000000	      0.00000000	      0.00000000	     -0.00000000	     -0.00000000	    -19.19430868	     18.45840332	      8.12979683	     -7.81810230	     -8.12979683	      7.81810230	     19.19430868	    -18.45840332	     -3.88642715	      3.73742243	     31.40831791	    -30.20413025	     14.11814039	    -13.57685415	    -14.11814039	     13.57685415	    -31.40831791	     30.20413025	      3.88642715	     -3.73742243	     30.00000000	      0.00000000	     79.31607630	    -76.27511623	    -30.00000000	     -0.00000000	      0.00000000	      0.00000000
      2.26400535	     -0.00000000	     -0.00000000	      0.00000000	      0.00000000	      0.00000000	      0.00000000	     -0.00000000	     -0.00000000	      0.00000000	      0.00000000	     -0.00000000	     -0.00000000	    -18.18236646	     19.03276126	      7.70118620	     -8.06137302	     -7.70118620	      8.06137302	     18.18236646	    -19.03276126	     -3.68153101	      3.85371733	     29.75244150	    -31.14397222	     13.37381859	    -13.99931615	    -13.37381859	     13.99931615	    -29.75244150	     31.14397222	      3.68153101	     -3.85371733	     30.00000000	      0.00000000	     75.13445726	    -78.64851864	    -30.00000000	     -0.00000000	      0.00000000	      0.00000000
      2.31775211	     -0.00000000	     -0.00000000	      0.00000000	      0.00000000	      0.00000000	      0.00000000	     -0.00000000	     -0.00000000	      0.00000000	      0.00000000	     -0.00000000	     -0.00000000	    -17.16145559	     18.87113447	      7.26877688	     -7.99291560	     -7.26877688	      7.99291560	     17.16145559	    -18.87113447	     -3.47481891	      3.82099145	     28.08188936	    -30.87949666	     12.62290001	    -13.88043353	    -12.62290001	     13.88043353	    -28.08188936	     30.87949666	      3.47481891	     -3.82099145	     30.00000000	      0.00000000	     70.91577732	    -77.98063302	    -30.00000000	     -0.00000000	      0.00000000	      0.00000000
      2.37149887	     -0.00000000	     -0.00000000	      0.00000000	      0.00000000	      0.00000000	      0.00000000	     -0.00000000	     -0.00000000	      0.00000000	      0.00000000	     -0.00000000	     -0.00000000	    -16.16014117	     18.35048548	      6.84466769	     -7.77239343	     -6.84466769	      7.77239343	     16.16014117	    -18.35048548	     -3.27207467	      3.71557143	     26.44340359	    -30.02754053	     11.88639537	    -13.49747650	    -11.88639537	     13.49747650	    -26.44340359	     30.02754053	      3.27207467	     -3.71557143	     30.00000000	      0.00000000	     66.77807525	    -75.82917054	    -30.00000000	     -0.00000000	      0.00000000	      0.00000000
      2.42524563	     -0.00000000	     -0.00000000	      0.00000000	      0.00000000	      0.00000000	      0.00000000	     -0.00000000	     -0.00000000	      0.00000000	      0.00000000	     -0.00000000	     -0.00000000	    -15.19159239	     17.67491528	      6.43443646	     -7.48625400	     -6.43443646	      7.48625400	     15.19159239	    -17.67491528	     -3.07596476	      3.57878326	     24.85853339	    -28.92208139	     11.17399109	    -13.00056905	    -11.17399109	     13.00056905	    -24.85853339	     28.92208139	      3.07596476	     -3.57878326	     30.00000000	      0.00000000	     62.77576967	    -73.03753168	    -30.00000000	     -0.00000000	      0.00000000	      0.00000000
      2.49399058	     -0.00000000	     -0.00000000	      0.00000000	      0.00000000	      0.00000000	      0.00000000	     -0.00000000	     -0.00000000	      0.00000000	      0.00000000	     -0.00000000	     -0.00000000	    -14.00876305	     16.72875369	      5.93344617	     -7.08550493	     -5.93344617	      7.08550493	     14.00876305	    -16.72875369	     -2.83646772	      3.38720626	     22.92302841	    -27.37384414	     10.30397535	    -12.30463139	    -10.30397535	     12.30463139	    -22.92302841	     27.37384414	      2.83646772	     -3.38720626	     30.00000000	      0.00000000	     57.88799883	    -69.12773603	    -30.00000000	     -0.00000000	      0.00000000	      0.00000000
      2.57988802	     -0.00000000	     -0.00000000	      0.00000000	      0.00000000	      0.00000000	      0.00000000	     -0.00000000	     -0.00000000	      0.00000000	      0.00000000	     -0.00000000	     -0.00000000	    -12.62396109	     15.51201230	      5.34690989	     -6.57015111	     -5.34690989	      6.57015111	     12.62396109	    -15.51201230	     -2.55607565	      3.14084277	     20.65702859	    -25.38284768	      9.28540110	    -11.40967206	     -9.28540110	     11.40967206	    -20.65702859	     25.38284768	      2.55607565	     -3.14084277	     30.00000000	      0.00000000	     52.16562250	    -64.09983143	    -30.00000000	     -0.00000000	      0.00000000	      0.00000000
      2.69840433	     -0.00000000	     -0.00000000	      0.00000000	      0.00000000	      0.00000000	      0.00000000	     -0.00000000	     -0.00000000	      0.00000000	      0.00000000	     -0.00000000	     -0.00000000	    -10.88531446	     13.82928916	      4.61050181	     -5.85742957	     -4.61050181	      5.85742957	     10.88531446	    -13.82928916	     -2.20403779	      2.80012819	     17.81202036	    -22.62934902	      8.00656071	    -10.17196551	     -8.00656071	     10.17196551	    -17.81202036	     22.62934902	      2.20403779	     -2.80012819	     30.00000000	      0.00000000	     44.98106426	    -57.14636417	    -30.00000000	     -0.00000000	      0.00000000	      0.00000000
      2.88662260	     -0.00000000	     -0.00000000	      0.00000000	      0.00000000	      0.00000000	      0.00000000	     -0.00000000	     -0.00000000	      0.00000000	      0.00000000	     -0.00000000	     -0.00000000	     -8.53223655	     11.17998987	      3.61384986	     -4.73531231	     -3.61384986	      4.73531231	      8.53223655	    -11.17998987	     -1.72759104	      2.26370310	     13.96159677	    -18.29420803	      6.27578286	     -8.22330562	     -6.27578286	      8.22330562	    -13.96159677	     18.29420803	      1.72759104	     -2.26370310	     30.00000000	      0.00000000	     35.25750973	    -46.19874275	    -30.00000000	     -0.00000000	      0.00000000	      0.00000000
      3.26429684	     -0.00000000	     -0.00000000	      0.00000000	      0.00000000	      0.00000000	      0.00000000	     -0.00000000	     -0.00000000	      0.00000000	      0.00000000	     -0.00000000	     -0.00000000	     -5.29752510	      5.97603953	      2.24377984	     -2.53116630	     -2.24377984	      2.53116630	      5.29752510	     -5.97603953	     -1.07263282	      1.21001713	      8.66852541	     -9.77880227	      3.89653018	     -4.39560322	     -3.89653018	      4.39560322	     -8.66852541	      9.77880227	      1.07263282	     -1.21001713	     30.00000000	      0.00000000	     21.89080691	    -24.69461209	    -30.00000000	     -0.00000000	      0.00000000	      0.00000000
      3.91028215	     -0.00000000	     -0.00000000	      0.00000000	      0.00000000	      0.00000000	      0.00000000	     -0.00000000	     -0.00000000	      0.00000000	      0.00000000	     -0.00000000	     -0.00000000	     -4.21348935	     -2.53555595	      1.78463382	      1.07394098	     -1.78463382	     -1.07394098	      4.21348935	      2.53555595	     -0.85313932	     -0.51339455	      6.89467983	      4.14901878	      3.09918086	      1.86499735	     -3.09918086	     -1.86499735	     -6.89467983	     -4.14901878	      0.85313932	      0.51339455	     30.00000000	      0.00000000	     17.41127790	     10.47760314	    -30.00000000	     -0.00000000	      0.00000000	      0.00000000
      4.62071808	     -0.00000000	     -0.00000000	      0.00000000	      0.00000000	      0.00000000	      0.00000000	     -0.00000000	     -0.00000000	      0.00000000	      0.00000000	     -0.00000000	     -0.00000000	     -9.16578461	    -11.29796554	      3.88219070	      4.78528120	     -3.88219070	     -4.78528120	      9.16578461	     11.29796554	     -1.85587065	     -2.28759059	     14.99829359	     18.48725574	      6.74178143	      8.31008120	     -6.74178143	     -8.31008120	    -14.99829359	    -18.48725574	      1.85587065	      2.28759059	     30.00000000	      0.00000000	     37.87550170	     46.68625015	    -30.00000000	     -0.00000000	      0.00000000	      0.00000000
      4.82334227	     -0.00000000	     -0.00000000	      0.00000000	      0.00000000	      0.00000000	      0.00000000	     -0.00000000	     -0.00000000	      0.00000000	      0.00000000	     -0.00000000	     -0.00000000	    -11.69673985	    -13.67370774	      4.95418304	      5.79153267	     -4.95418304	     -5.79153267	     11.69673985	     13.67370774	     -2.36833366	     -2.76862636	     19.13978407	     22.37476571	      8.60339479	     10.05752949	     -8.60339479	    -10.05752949	    -19.13978407	    -22.37476571	      2.36833366	      2.76862636	     30.00000000	      0.00000000	     48.33409348	     56.50345966	    -30.00000000	     -0.00000000	      0.00000000	      0.00000000
